<?xml version="1.0" encoding="us-ascii" standalone="no"?><svg xmlns="http://www.w3.org/2000/svg" xmlns:xlink="http://www.w3.org/1999/xlink" contentStyleType="text/css" height="457px" preserveAspectRatio="none" style="width:581px;height:457px;background:#FFFFFF;" version="1.1" viewBox="0 0 581 457" width="581px" zoomAndPan="magnify"><defs/><g><!--class NamedElt--><g id="elem_NamedElt"><rect codeLine="1" fill="#719626" fill-opacity="0.83137" height="65.6094" id="NamedElt" rx="2.5" ry="2.5" style="stroke:#181818;stroke-width:0.5;" width="93" x="481.5" y="7"/><ellipse cx="496.5" cy="23" fill="#A9DCDF" rx="11" ry="11" style="stroke:#181818;stroke-width:1.0;"/><path d="M498.6875,24.7656 L494.5469,24.7656 L494.125,25.7969 L494.5469,25.7969 Q495.1563,25.7969 495.4219,26.0313 Q495.6875,26.2656 495.6875,26.6563 Q495.6875,27.0313 495.4219,27.2656 Q495.1563,27.5 494.5469,27.5 L492.25,27.5 Q491.6406,27.5 491.3906,27.2656 Q491.125,27.0313 491.125,26.6406 Q491.125,26.2656 491.4063,26.0313 Q491.6719,25.7813 492.2969,25.7969 L494.9688,19.1406 L493.8594,19.1406 Q493.25,19.1406 492.9844,18.9063 Q492.7188,18.6719 492.7188,18.2813 Q492.7188,17.9063 492.9844,17.6719 Q493.25,17.4375 493.8594,17.4375 L497.5313,17.4375 L500.9219,25.7969 Q501.5156,25.7969 501.7031,25.9375 Q502.0938,26.2031 502.0938,26.6563 Q502.0938,27.0313 501.8281,27.2656 Q501.5781,27.5 500.9688,27.5 L498.6719,27.5 Q498.0625,27.5 497.7969,27.2656 Q497.5313,27.0313 497.5313,26.6406 Q497.5313,26.2656 497.7969,26.0313 Q498.0625,25.7969 498.6719,25.7969 L499.0938,25.7969 L498.6875,24.7656 Z M497.9688,23.0625 L496.6094,19.6875 L495.2344,23.0625 L497.9688,23.0625 Z " fill="#000000"/><text fill="#000000" font-family="sans-serif" font-size="14" font-style="italic" lengthAdjust="spacing" textLength="61" x="510.5" y="28.7285">NamedElt</text><line style="stroke:#181818;stroke-width:0.5;" x1="482.5" x2="573.5" y1="39" y2="39"/><text fill="#000000" font-family="sans-serif" font-size="14" lengthAdjust="spacing" textLength="76" x="487.5" y="57.5332">String name</text><line style="stroke:#181818;stroke-width:0.5;" x1="482.5" x2="573.5" y1="64.6094" y2="64.6094"/></g><!--class Classifier--><g id="elem_Classifier"><rect codeLine="4" fill="#660AF6" fill-opacity="0.25490" height="48" id="Classifier" rx="2.5" ry="2.5" style="stroke:#181818;stroke-width:0.5;" width="90" x="318" y="142"/><ellipse cx="333" cy="158" fill="#A9DCDF" rx="11" ry="11" style="stroke:#181818;stroke-width:1.0;"/><path d="M335.1875,159.7656 L331.0469,159.7656 L330.625,160.7969 L331.0469,160.7969 Q331.6563,160.7969 331.9219,161.0313 Q332.1875,161.2656 332.1875,161.6563 Q332.1875,162.0313 331.9219,162.2656 Q331.6563,162.5 331.0469,162.5 L328.75,162.5 Q328.1406,162.5 327.8906,162.2656 Q327.625,162.0313 327.625,161.6406 Q327.625,161.2656 327.9063,161.0313 Q328.1719,160.7813 328.7969,160.7969 L331.4688,154.1406 L330.3594,154.1406 Q329.75,154.1406 329.4844,153.9063 Q329.2188,153.6719 329.2188,153.2813 Q329.2188,152.9063 329.4844,152.6719 Q329.75,152.4375 330.3594,152.4375 L334.0313,152.4375 L337.4219,160.7969 Q338.0156,160.7969 338.2031,160.9375 Q338.5938,161.2031 338.5938,161.6563 Q338.5938,162.0313 338.3281,162.2656 Q338.0781,162.5 337.4688,162.5 L335.1719,162.5 Q334.5625,162.5 334.2969,162.2656 Q334.0313,162.0313 334.0313,161.6406 Q334.0313,161.2656 334.2969,161.0313 Q334.5625,160.7969 335.1719,160.7969 L335.5938,160.7969 L335.1875,159.7656 Z M334.4688,158.0625 L333.1094,154.6875 L331.7344,158.0625 L334.4688,158.0625 Z " fill="#000000"/><text fill="#000000" font-family="sans-serif" font-size="14" font-style="italic" lengthAdjust="spacing" textLength="58" x="347" y="163.7285">Classifier</text><line style="stroke:#181818;stroke-width:0.5;" x1="319" x2="407" y1="174" y2="174"/><line style="stroke:#181818;stroke-width:0.5;" x1="319" x2="407" y1="182" y2="182"/></g><!--class DataType--><g id="elem_DataType"><rect codeLine="6" fill="#6E7D72" fill-opacity="0.14118" height="48" id="DataType" rx="2.5" ry="2.5" style="stroke:#181818;stroke-width:0.5;" width="94" x="7" y="268"/><ellipse cx="22" cy="284" fill="#ADD1B2" rx="11" ry="11" style="stroke:#181818;stroke-width:1.0;"/><path d="M24.7656,279.875 Q24.9219,279.6563 25.1094,279.5469 Q25.2969,279.4375 25.5156,279.4375 Q25.8906,279.4375 26.125,279.7031 Q26.3594,279.9531 26.3594,280.5625 L26.3594,282.0156 Q26.3594,282.625 26.125,282.8906 Q25.8906,283.1563 25.5156,283.1563 Q25.1719,283.1563 24.9688,282.9531 Q24.7656,282.7656 24.6563,282.25 Q24.6094,281.8906 24.4219,281.7031 Q24.0938,281.3281 23.4844,281.1094 Q22.875,280.8906 22.25,280.8906 Q21.4844,280.8906 20.8438,281.2188 Q20.2188,281.5469 19.7188,282.2969 Q19.2344,283.0469 19.2344,284.0781 L19.2344,285.1719 Q19.2344,286.4063 20.125,287.2344 Q21.0156,288.0469 22.6094,288.0469 Q23.5469,288.0469 24.2031,287.7969 Q24.5938,287.6406 25.0156,287.2031 Q25.2813,286.9375 25.4219,286.8594 Q25.5781,286.7813 25.7813,286.7813 Q26.1094,286.7813 26.3594,287.0469 Q26.625,287.2969 26.625,287.6406 Q26.625,287.9844 26.2813,288.3906 Q25.7813,288.9688 24.9844,289.2969 Q23.9063,289.75 22.6094,289.75 Q21.0938,289.75 19.8906,289.125 Q18.9063,288.625 18.2188,287.5625 Q17.5313,286.4844 17.5313,285.2031 L17.5313,284.0469 Q17.5313,282.7188 18.1406,281.5781 Q18.7656,280.4219 19.8594,279.8125 Q20.9531,279.1875 22.1875,279.1875 Q22.9219,279.1875 23.5625,279.3594 Q24.2188,279.5156 24.7656,279.875 Z " fill="#000000"/><text fill="#000000" font-family="sans-serif" font-size="14" lengthAdjust="spacing" textLength="62" x="36" y="289.7285">DataType</text><line style="stroke:#181818;stroke-width:0.5;" x1="8" x2="100" y1="300" y2="300"/><line style="stroke:#181818;stroke-width:0.5;" x1="8" x2="100" y1="308" y2="308"/></g><!--class Class--><g id="elem_Class"><rect codeLine="8" fill="#03E2B9" fill-opacity="0.34510" height="65.6094" id="Class" rx="2.5" ry="2.5" style="stroke:#181818;stroke-width:0.5;" width="130" x="136" y="259"/><ellipse cx="179.35" cy="275" fill="#ADD1B2" rx="11" ry="11" style="stroke:#181818;stroke-width:1.0;"/><path d="M182.1156,270.875 Q182.2719,270.6563 182.4594,270.5469 Q182.6469,270.4375 182.8656,270.4375 Q183.2406,270.4375 183.475,270.7031 Q183.7094,270.9531 183.7094,271.5625 L183.7094,273.0156 Q183.7094,273.625 183.475,273.8906 Q183.2406,274.1563 182.8656,274.1563 Q182.5219,274.1563 182.3188,273.9531 Q182.1156,273.7656 182.0063,273.25 Q181.9594,272.8906 181.7719,272.7031 Q181.4438,272.3281 180.8344,272.1094 Q180.225,271.8906 179.6,271.8906 Q178.8344,271.8906 178.1938,272.2188 Q177.5688,272.5469 177.0688,273.2969 Q176.5844,274.0469 176.5844,275.0781 L176.5844,276.1719 Q176.5844,277.4063 177.475,278.2344 Q178.3656,279.0469 179.9594,279.0469 Q180.8969,279.0469 181.5531,278.7969 Q181.9438,278.6406 182.3656,278.2031 Q182.6313,277.9375 182.7719,277.8594 Q182.9281,277.7813 183.1313,277.7813 Q183.4594,277.7813 183.7094,278.0469 Q183.975,278.2969 183.975,278.6406 Q183.975,278.9844 183.6313,279.3906 Q183.1313,279.9688 182.3344,280.2969 Q181.2563,280.75 179.9594,280.75 Q178.4438,280.75 177.2406,280.125 Q176.2563,279.625 175.5688,278.5625 Q174.8813,277.4844 174.8813,276.2031 L174.8813,275.0469 Q174.8813,273.7188 175.4906,272.5781 Q176.1156,271.4219 177.2094,270.8125 Q178.3031,270.1875 179.5375,270.1875 Q180.2719,270.1875 180.9125,270.3594 Q181.5688,270.5156 182.1156,270.875 Z " fill="#000000"/><text fill="#000000" font-family="sans-serif" font-size="14" lengthAdjust="spacing" textLength="35" x="199.65" y="280.7285">Class</text><line style="stroke:#181818;stroke-width:0.5;" x1="137" x2="265" y1="291" y2="291"/><text fill="#000000" font-family="sans-serif" font-size="14" lengthAdjust="spacing" textLength="118" x="142" y="309.5332">Boolean isAbstract</text><line style="stroke:#181818;stroke-width:0.5;" x1="137" x2="265" y1="316.6094" y2="316.6094"/></g><!--class Attribute--><g id="elem_Attribute"><rect codeLine="11" fill="#7839CA" fill-opacity="0.48627" height="65.6094" id="Attribute" rx="2.5" ry="2.5" style="stroke:#181818;stroke-width:0.5;" width="141" x="389.5" y="385"/><ellipse cx="429.7" cy="401" fill="#ADD1B2" rx="11" ry="11" style="stroke:#181818;stroke-width:1.0;"/><path d="M432.4656,396.875 Q432.6219,396.6563 432.8094,396.5469 Q432.9969,396.4375 433.2156,396.4375 Q433.5906,396.4375 433.825,396.7031 Q434.0594,396.9531 434.0594,397.5625 L434.0594,399.0156 Q434.0594,399.625 433.825,399.8906 Q433.5906,400.1563 433.2156,400.1563 Q432.8719,400.1563 432.6688,399.9531 Q432.4656,399.7656 432.3563,399.25 Q432.3094,398.8906 432.1219,398.7031 Q431.7938,398.3281 431.1844,398.1094 Q430.575,397.8906 429.95,397.8906 Q429.1844,397.8906 428.5438,398.2188 Q427.9188,398.5469 427.4188,399.2969 Q426.9344,400.0469 426.9344,401.0781 L426.9344,402.1719 Q426.9344,403.4063 427.825,404.2344 Q428.7156,405.0469 430.3094,405.0469 Q431.2469,405.0469 431.9031,404.7969 Q432.2938,404.6406 432.7156,404.2031 Q432.9813,403.9375 433.1219,403.8594 Q433.2781,403.7813 433.4813,403.7813 Q433.8094,403.7813 434.0594,404.0469 Q434.325,404.2969 434.325,404.6406 Q434.325,404.9844 433.9813,405.3906 Q433.4813,405.9688 432.6844,406.2969 Q431.6063,406.75 430.3094,406.75 Q428.7938,406.75 427.5906,406.125 Q426.6063,405.625 425.9188,404.5625 Q425.2313,403.4844 425.2313,402.2031 L425.2313,401.0469 Q425.2313,399.7188 425.8406,398.5781 Q426.4656,397.4219 427.5594,396.8125 Q428.6531,396.1875 429.8875,396.1875 Q430.6219,396.1875 431.2625,396.3594 Q431.9188,396.5156 432.4656,396.875 Z " fill="#000000"/><text fill="#000000" font-family="sans-serif" font-size="14" lengthAdjust="spacing" textLength="53" x="449.3" y="406.7285">Attribute</text><line style="stroke:#181818;stroke-width:0.5;" x1="390.5" x2="529.5" y1="417" y2="417"/><text fill="#000000" font-family="sans-serif" font-size="14" lengthAdjust="spacing" textLength="129" x="395.5" y="435.5332">Boolean multiValued</text><line style="stroke:#181818;stroke-width:0.5;" x1="390.5" x2="529.5" y1="442.6094" y2="442.6094"/></g><!--class Package--><g id="elem_Package"><rect codeLine="14" fill="#331DCC" fill-opacity="0.14902" height="48" id="Package" rx="2.5" ry="2.5" style="stroke:#181818;stroke-width:0.5;" width="87" x="319.5" y="268"/><ellipse cx="334.5" cy="284" fill="#ADD1B2" rx="11" ry="11" style="stroke:#181818;stroke-width:1.0;"/><path d="M337.2656,279.875 Q337.4219,279.6563 337.6094,279.5469 Q337.7969,279.4375 338.0156,279.4375 Q338.3906,279.4375 338.625,279.7031 Q338.8594,279.9531 338.8594,280.5625 L338.8594,282.0156 Q338.8594,282.625 338.625,282.8906 Q338.3906,283.1563 338.0156,283.1563 Q337.6719,283.1563 337.4688,282.9531 Q337.2656,282.7656 337.1563,282.25 Q337.1094,281.8906 336.9219,281.7031 Q336.5938,281.3281 335.9844,281.1094 Q335.375,280.8906 334.75,280.8906 Q333.9844,280.8906 333.3438,281.2188 Q332.7188,281.5469 332.2188,282.2969 Q331.7344,283.0469 331.7344,284.0781 L331.7344,285.1719 Q331.7344,286.4063 332.625,287.2344 Q333.5156,288.0469 335.1094,288.0469 Q336.0469,288.0469 336.7031,287.7969 Q337.0938,287.6406 337.5156,287.2031 Q337.7813,286.9375 337.9219,286.8594 Q338.0781,286.7813 338.2813,286.7813 Q338.6094,286.7813 338.8594,287.0469 Q339.125,287.2969 339.125,287.6406 Q339.125,287.9844 338.7813,288.3906 Q338.2813,288.9688 337.4844,289.2969 Q336.4063,289.75 335.1094,289.75 Q333.5938,289.75 332.3906,289.125 Q331.4063,288.625 330.7188,287.5625 Q330.0313,286.4844 330.0313,285.2031 L330.0313,284.0469 Q330.0313,282.7188 330.6406,281.5781 Q331.2656,280.4219 332.3594,279.8125 Q333.4531,279.1875 334.6875,279.1875 Q335.4219,279.1875 336.0625,279.3594 Q336.7188,279.5156 337.2656,279.875 Z " fill="#000000"/><text fill="#000000" font-family="sans-serif" font-size="14" lengthAdjust="spacing" textLength="55" x="348.5" y="289.7285">Package</text><line style="stroke:#181818;stroke-width:0.5;" x1="320.5" x2="405.5" y1="300" y2="300"/><line style="stroke:#181818;stroke-width:0.5;" x1="320.5" x2="405.5" y1="308" y2="308"/></g><!--class Boolean--><g id="elem_Boolean"><rect codeLine="16" fill="#671404" fill-opacity="0.03137" height="65.6094" id="Boolean" rx="2.5" ry="2.5" style="stroke:#181818;stroke-width:0.5;" width="125" x="165.5" y="7"/><ellipse cx="198.95" cy="23" fill="#ADD1B2" rx="11" ry="11" style="stroke:#181818;stroke-width:1.0;"/><path d="M201.7156,18.875 Q201.8719,18.6563 202.0594,18.5469 Q202.2469,18.4375 202.4656,18.4375 Q202.8406,18.4375 203.075,18.7031 Q203.3094,18.9531 203.3094,19.5625 L203.3094,21.0156 Q203.3094,21.625 203.075,21.8906 Q202.8406,22.1563 202.4656,22.1563 Q202.1219,22.1563 201.9188,21.9531 Q201.7156,21.7656 201.6063,21.25 Q201.5594,20.8906 201.3719,20.7031 Q201.0438,20.3281 200.4344,20.1094 Q199.825,19.8906 199.2,19.8906 Q198.4344,19.8906 197.7938,20.2188 Q197.1688,20.5469 196.6688,21.2969 Q196.1844,22.0469 196.1844,23.0781 L196.1844,24.1719 Q196.1844,25.4063 197.075,26.2344 Q197.9656,27.0469 199.5594,27.0469 Q200.4969,27.0469 201.1531,26.7969 Q201.5438,26.6406 201.9656,26.2031 Q202.2313,25.9375 202.3719,25.8594 Q202.5281,25.7813 202.7313,25.7813 Q203.0594,25.7813 203.3094,26.0469 Q203.575,26.2969 203.575,26.6406 Q203.575,26.9844 203.2313,27.3906 Q202.7313,27.9688 201.9344,28.2969 Q200.8563,28.75 199.5594,28.75 Q198.0438,28.75 196.8406,28.125 Q195.8563,27.625 195.1688,26.5625 Q194.4813,25.4844 194.4813,24.2031 L194.4813,23.0469 Q194.4813,21.7188 195.0906,20.5781 Q195.7156,19.4219 196.8094,18.8125 Q197.9031,18.1875 199.1375,18.1875 Q199.8719,18.1875 200.5125,18.3594 Q201.1688,18.5156 201.7156,18.875 Z " fill="#000000"/><text fill="#000000" font-family="sans-serif" font-size="14" lengthAdjust="spacing" textLength="52" x="217.05" y="28.7285">Boolean</text><line style="stroke:#181818;stroke-width:0.5;" x1="166.5" x2="289.5" y1="39" y2="39"/><text fill="#000000" font-family="sans-serif" font-size="14" lengthAdjust="spacing" textLength="113" x="171.5" y="57.5332">java.lang.Boolean</text><line style="stroke:#181818;stroke-width:0.5;" x1="166.5" x2="289.5" y1="64.6094" y2="64.6094"/></g><!--class Integer--><g id="elem_Integer"><rect codeLine="19" fill="#D7EE19" fill-opacity="0.11765" height="65.6094" id="Integer" rx="2.5" ry="2.5" style="stroke:#181818;stroke-width:0.5;" width="117" x="325.5" y="7"/><ellipse cx="358.95" cy="23" fill="#ADD1B2" rx="11" ry="11" style="stroke:#181818;stroke-width:1.0;"/><path d="M361.7156,18.875 Q361.8719,18.6563 362.0594,18.5469 Q362.2469,18.4375 362.4656,18.4375 Q362.8406,18.4375 363.075,18.7031 Q363.3094,18.9531 363.3094,19.5625 L363.3094,21.0156 Q363.3094,21.625 363.075,21.8906 Q362.8406,22.1563 362.4656,22.1563 Q362.1219,22.1563 361.9188,21.9531 Q361.7156,21.7656 361.6063,21.25 Q361.5594,20.8906 361.3719,20.7031 Q361.0438,20.3281 360.4344,20.1094 Q359.825,19.8906 359.2,19.8906 Q358.4344,19.8906 357.7938,20.2188 Q357.1688,20.5469 356.6688,21.2969 Q356.1844,22.0469 356.1844,23.0781 L356.1844,24.1719 Q356.1844,25.4063 357.075,26.2344 Q357.9656,27.0469 359.5594,27.0469 Q360.4969,27.0469 361.1531,26.7969 Q361.5438,26.6406 361.9656,26.2031 Q362.2313,25.9375 362.3719,25.8594 Q362.5281,25.7813 362.7313,25.7813 Q363.0594,25.7813 363.3094,26.0469 Q363.575,26.2969 363.575,26.6406 Q363.575,26.9844 363.2313,27.3906 Q362.7313,27.9688 361.9344,28.2969 Q360.8563,28.75 359.5594,28.75 Q358.0438,28.75 356.8406,28.125 Q355.8563,27.625 355.1688,26.5625 Q354.4813,25.4844 354.4813,24.2031 L354.4813,23.0469 Q354.4813,21.7188 355.0906,20.5781 Q355.7156,19.4219 356.8094,18.8125 Q357.9031,18.1875 359.1375,18.1875 Q359.8719,18.1875 360.5125,18.3594 Q361.1688,18.5156 361.7156,18.875 Z " fill="#000000"/><text fill="#000000" font-family="sans-serif" font-size="14" lengthAdjust="spacing" textLength="44" x="377.05" y="28.7285">Integer</text><line style="stroke:#181818;stroke-width:0.5;" x1="326.5" x2="441.5" y1="39" y2="39"/><text fill="#000000" font-family="sans-serif" font-size="14" lengthAdjust="spacing" textLength="105" x="331.5" y="57.5332">java.lang.Integer</text><line style="stroke:#181818;stroke-width:0.5;" x1="326.5" x2="441.5" y1="64.6094" y2="64.6094"/></g><!--class String--><g id="elem_String"><rect codeLine="22" fill="#943A4C" fill-opacity="0.19216" height="65.6094" id="String" rx="2.5" ry="2.5" style="stroke:#181818;stroke-width:0.5;" width="110" x="173" y="133"/><ellipse cx="206.45" cy="149" fill="#ADD1B2" rx="11" ry="11" style="stroke:#181818;stroke-width:1.0;"/><path d="M209.2156,144.875 Q209.3719,144.6563 209.5594,144.5469 Q209.7469,144.4375 209.9656,144.4375 Q210.3406,144.4375 210.575,144.7031 Q210.8094,144.9531 210.8094,145.5625 L210.8094,147.0156 Q210.8094,147.625 210.575,147.8906 Q210.3406,148.1563 209.9656,148.1563 Q209.6219,148.1563 209.4188,147.9531 Q209.2156,147.7656 209.1063,147.25 Q209.0594,146.8906 208.8719,146.7031 Q208.5438,146.3281 207.9344,146.1094 Q207.325,145.8906 206.7,145.8906 Q205.9344,145.8906 205.2938,146.2188 Q204.6688,146.5469 204.1688,147.2969 Q203.6844,148.0469 203.6844,149.0781 L203.6844,150.1719 Q203.6844,151.4063 204.575,152.2344 Q205.4656,153.0469 207.0594,153.0469 Q207.9969,153.0469 208.6531,152.7969 Q209.0438,152.6406 209.4656,152.2031 Q209.7313,151.9375 209.8719,151.8594 Q210.0281,151.7813 210.2313,151.7813 Q210.5594,151.7813 210.8094,152.0469 Q211.075,152.2969 211.075,152.6406 Q211.075,152.9844 210.7313,153.3906 Q210.2313,153.9688 209.4344,154.2969 Q208.3563,154.75 207.0594,154.75 Q205.5438,154.75 204.3406,154.125 Q203.3563,153.625 202.6688,152.5625 Q201.9813,151.4844 201.9813,150.2031 L201.9813,149.0469 Q201.9813,147.7188 202.5906,146.5781 Q203.2156,145.4219 204.3094,144.8125 Q205.4031,144.1875 206.6375,144.1875 Q207.3719,144.1875 208.0125,144.3594 Q208.6688,144.5156 209.2156,144.875 Z " fill="#000000"/><text fill="#000000" font-family="sans-serif" font-size="14" lengthAdjust="spacing" textLength="37" x="224.55" y="154.7285">String</text><line style="stroke:#181818;stroke-width:0.5;" x1="174" x2="282" y1="165" y2="165"/><text fill="#000000" font-family="sans-serif" font-size="14" lengthAdjust="spacing" textLength="98" x="179" y="183.5332">java.lang.String</text><line style="stroke:#181818;stroke-width:0.5;" x1="174" x2="282" y1="190.6094" y2="190.6094"/></g><!--reverse link NamedElt to Classifier--><g id="link_NamedElt_Classifier"><path codeLine="25" d="M470.6878,84.0704 C442.0378,105.5904 419.44,122.58 393.72,141.91 " fill="none" id="NamedElt-backto-Classifier" style="stroke:#181818;stroke-width:1.0;"/><polygon fill="none" points="485.08,73.26,467.0844,79.2731,474.2913,88.8678,485.08,73.26" style="stroke:#181818;stroke-width:1.0;"/></g><!--reverse link Classifier to DataType--><g id="link_Classifier_DataType"><path codeLine="26" d="M303.4822,197.9305 C296.9622,201.0905 306.46,196.31 300,199 C221.36,231.71 196.74,226.54 118,259 C111.45,261.7 104.65,264.78 98.03,267.95 " fill="none" id="Classifier-backto-DataType" style="stroke:#181818;stroke-width:1.0;"/><polygon fill="none" points="319.68,190.08,300.8653,192.5312,306.099,203.3298,319.68,190.08" style="stroke:#181818;stroke-width:1.0;"/></g><!--reverse link Classifier to Class--><g id="link_Classifier_Class"><path codeLine="27" d="M318.6156,200.9693 C293.2656,220.3693 271.03,237.4 242.84,258.98 " fill="none" id="Classifier-backto-Class" style="stroke:#181818;stroke-width:1.0;"/><polygon fill="none" points="332.91,190.03,314.9691,196.2045,322.262,205.7341,332.91,190.03" style="stroke:#181818;stroke-width:1.0;"/></g><!--reverse link NamedElt to Attribute--><g id="link_NamedElt_Attribute"><path codeLine="28" d="M518.997,90.7727 C506.167,161.7227 478.69,313.64 465.83,384.76 " fill="none" id="NamedElt-backto-Attribute" style="stroke:#181818;stroke-width:1.0;"/><polygon fill="none" points="522.2,73.06,513.0927,89.7051,524.9012,91.8404,522.2,73.06" style="stroke:#181818;stroke-width:1.0;"/></g><!--reverse link Classifier to Package--><g id="link_Classifier_Package"><path codeLine="29" d="M350.08,207.8202 C346.67,229.9602 349.39,245.44 352.78,267.67 " fill="none" id="Classifier-backto-Package" style="stroke:#181818;stroke-width:1.0;"/><polygon fill="none" points="352.82,190.03,344.1499,206.9069,356.01,208.7336,352.82,190.03" style="stroke:#181818;stroke-width:1.0;"/></g><!--link Package to Classifier--><g id="link_Package_Classifier"><path codeLine="33" d="M375.7331,255.8235 C379.3231,233.5935 378.3556,218.0918 374.7456,195.9518 " fill="none" id="Package-Classifier" style="stroke:#181818;stroke-width:1.0;"/><polygon fill="#181818" points="373.82,267.67,378.7254,262.3845,375.7331,255.8235,370.8277,261.109,373.82,267.67" style="stroke:#181818;stroke-width:1.0;"/><polygon fill="#181818" points="373.78,190.03,371.2805,199.5564,374.5846,194.9648,379.1762,198.269,373.78,190.03" style="stroke:#181818;stroke-width:1.0;"/><text fill="#000000" font-family="sans-serif" font-size="13" lengthAdjust="spacing" textLength="67" x="384.5733" y="211.3753">classifiers *</text></g><!--link Class to Class--><g id="link_Class_Class"><path codeLine="30" d="M266.4,268.43 C285.86,269.13 301,276.99 301,292 C301,307.01 291.8561,314.6543 272.3961,315.3543 " fill="none" id="Class-to-Class" style="stroke:#181818;stroke-width:1.0;"/><polygon fill="#181818" points="266.4,315.57,275.538,319.2439,271.3968,315.3903,275.2504,311.2491,266.4,315.57" style="stroke:#181818;stroke-width:1.0;"/><text fill="#000000" font-family="sans-serif" font-size="13" lengthAdjust="spacing" textLength="41" x="270.521" y="315.37">super *</text></g><!--reverse link Class to Attribute--><g id="link_Class_Attribute"><path codeLine="31" d="M276.8436,329.3117 C315.6536,347.8917 354.02,366.26 393.15,384.99 " fill="none" id="Class-backto-Attribute" style="stroke:#181818;stroke-width:1.0;"/><polygon fill="#181818" points="266.02,324.13,269.7046,330.3287,276.8436,329.3117,273.159,323.113,266.02,324.13" style="stroke:#181818;stroke-width:1.0;"/><text fill="#000000" font-family="sans-serif" font-size="13" lengthAdjust="spacing" textLength="34" x="241.9241" y="345.9785">owner</text><text fill="#000000" font-family="sans-serif" font-size="13" lengthAdjust="spacing" textLength="28" x="353.2752" y="376.5163">attr *</text></g><!--link Attribute to Classifier--><g id="link_Attribute_Classifier"><path codeLine="32" d="M456.13,384.77 C451.42,352.07 441.78,300.51 424,259 C413.21,233.81 399.0755,212.8332 385.4955,195.0032 " fill="none" id="Attribute-to-Classifier" style="stroke:#181818;stroke-width:1.0;"/><polygon fill="#181818" points="381.86,190.23,384.131,199.8134,384.8895,194.2077,390.4953,194.9662,381.86,190.23" style="stroke:#181818;stroke-width:1.0;"/><text fill="#000000" font-family="sans-serif" font-size="13" lengthAdjust="spacing" textLength="25" x="358.4103" y="211.624">type</text></g><!--SRC=[PP5VQuCm5CMVvwS8yKsm6CsI2cDWDOEzZC56tszj9cwf5eqRO-jtN_oNslL5YBzpphqvWLsh6yWroXMqBNg2WzmBfP7BISn2bb7quzoywAQi2bGPw9mSkBIa_RTyAsM3NCQ2v85HOamdPyGPQ7ZzFae31Szu6D857Bp83I8HRkBRTJzhKzTAGeNADfdcM7MYpHwxJfiilexYDE7fqd7eb2wte3gvjvPdo3-WC8Oe8bcQXcmnVFQvZ1CQq60O_mwVi59G5Qi9M_bZfMNHNpBZGf2OY4lvXArywioDQPJGD2ANwf4QiItyxjVt5rqwYre7DFTu1ORplnpRr9LwAcJyZtp_7k6sEnhguIbf9BZ-gcI3aMSy64nSBpZ7dfzYYD1cCRpSVkxT6t1kGMldZBe_]--></g></svg>